<svg width="28" height="27" viewBox="0 0 28 27" fill="none" xmlns="http://www.w3.org/2000/svg">
<g id="Frame" clip-path="url(#clip0_998_878)">
<path id="Vector" d="M20.9864 6.76347H26.542V8.98569H20.9864V6.76347ZM18.7642 12.319H26.542V14.5412H18.7642V12.319ZM22.0975 17.8746H26.542V20.0968H22.0975V17.8746ZM2.09753 23.4301C2.09753 21.0727 3.03404 18.8117 4.70103 17.1447C6.36802 15.4777 8.62894 14.5412 10.9864 14.5412C13.3439 14.5412 15.6048 15.4777 17.2718 17.1447C18.9388 18.8117 19.8753 21.0727 19.8753 23.4301H17.6531C17.6531 21.662 16.9507 19.9663 15.7005 18.7161C14.4502 17.4658 12.7545 16.7635 10.9864 16.7635C9.21831 16.7635 7.52262 17.4658 6.27238 18.7161C5.02214 19.9663 4.31976 21.662 4.31976 23.4301H2.09753ZM10.9864 13.4301C7.30309 13.4301 4.31976 10.4468 4.31976 6.76347C4.31976 3.08013 7.30309 0.0968018 10.9864 0.0968018C14.6698 0.0968018 17.6531 3.08013 17.6531 6.76347C17.6531 10.4468 14.6698 13.4301 10.9864 13.4301ZM10.9864 11.2079C13.442 11.2079 15.4309 9.21902 15.4309 6.76347C15.4309 4.30791 13.442 2.31902 10.9864 2.31902C8.53087 2.31902 6.54198 4.30791 6.54198 6.76347C6.54198 9.21902 8.53087 11.2079 10.9864 11.2079Z" fill="#27AE60"/>
</g>
<defs>
<clipPath id="clip0_998_878">
<rect width="26.6667" height="26.6667" fill="white" transform="translate(0.892456 0.0968018)"/>
</clipPath>
</defs>
</svg>
