<svg width="209" height="82" viewBox="0 0 209 82" fill="none" xmlns="http://www.w3.org/2000/svg">
<g id="f_41164214e543b92c (1) 1">
<path id="Vector" d="M88.2316 59.2551C88.4423 59.5172 88.5466 59.844 88.5466 60.2348C88.5466 60.7885 88.3424 61.2191 87.9341 61.5257C87.5257 61.8321 86.9343 61.9859 86.1591 61.9859H83.5183C83.3241 61.9859 83.168 61.8284 83.168 61.634V56.016C83.168 55.8215 83.3251 55.665 83.5183 55.665H85.9882C86.6967 55.665 87.2493 55.8068 87.6457 56.0891C88.0421 56.3724 88.2408 56.7725 88.2408 57.2901C88.2408 57.6217 88.1614 57.9068 88.0024 58.1476C87.8435 58.3884 87.6134 58.5717 87.3131 58.6985C87.715 58.8078 88.0218 58.9931 88.2316 59.2551ZM84.3211 58.3652H85.8892C86.2681 58.3652 86.5563 58.2902 86.7542 58.1393C86.9527 57.9883 87.0516 57.7661 87.0516 57.4707C87.0516 57.1762 86.9527 56.9513 86.7542 56.7985C86.5555 56.6447 86.2672 56.5679 85.8892 56.5679H84.3211V58.3652ZM87.3666 60.1449C87.3666 59.5311 86.9527 59.2237 86.1229 59.2237H84.3211V61.0839H86.1229C86.9527 61.0839 87.3666 60.771 87.3666 60.1449Z" fill="#A8A8A8"/>
<path id="Vector_2" d="M94.5351 58.3154C94.1305 57.9774 93.5483 57.806 92.7915 57.806H91.0433V55.9597C91.0433 55.7967 90.912 55.667 90.7513 55.667H90.1812C90.0205 55.667 89.8893 55.7967 89.8893 55.9597V61.6933C89.8893 61.8563 90.0205 61.986 90.1812 61.986H92.6022C93.406 61.986 94.0315 61.8026 94.476 61.4313C94.9204 61.0599 95.1422 60.5266 95.1422 59.8274C95.1422 59.1599 94.9408 58.6551 94.5351 58.3154ZM93.6019 60.7674C93.357 60.9776 93.0049 61.0832 92.5485 61.0832H91.0433V58.7005H92.5485C93.4966 58.7005 93.9715 59.082 93.9715 59.847C93.9715 60.2506 93.8486 60.5572 93.6019 60.7674Z" fill="#A8A8A8"/>
<path id="Vector_3" d="M97.206 55.9597V61.6933C97.206 61.8563 97.0748 61.986 96.914 61.986H96.344C96.1831 61.986 96.0519 61.8563 96.0519 61.6933V55.9597C96.0519 55.7967 96.1831 55.667 96.344 55.667H96.914C97.0748 55.667 97.206 55.7967 97.206 55.9597Z" fill="#A8A8A8"/>
<path id="Vector_4" d="M76.7103 59.1285V59.6999C76.7103 59.8609 76.5809 59.9925 76.4184 59.9925H53.8505C53.688 59.9925 53.5586 59.8609 53.5586 59.6999V59.1285C53.5586 58.9675 53.688 58.8359 53.8505 58.8359H76.4184C76.5809 58.8359 76.7103 58.9675 76.7103 59.1285Z" fill="#A8A8A8"/>
<path id="Vector_5" d="M190.715 59.1285V59.6999C190.715 59.8609 190.586 59.9925 190.424 59.9925H167.856C167.694 59.9925 167.563 59.8609 167.563 59.6999V59.1285C167.563 58.9675 167.694 58.8359 167.856 58.8359H190.424C190.586 58.8359 190.715 58.9675 190.715 59.1285Z" fill="#A8A8A8"/>
<path id="Vector_6" d="M104.054 59.2551C104.264 59.5172 104.369 59.844 104.369 60.2348C104.369 60.7885 104.165 61.2191 103.756 61.5255C103.348 61.8321 102.756 61.9857 101.981 61.9857H99.3774C99.163 61.9857 98.9893 61.8117 98.9893 61.5968V56.0549C98.9893 55.8401 99.163 55.666 99.3774 55.666H101.809C102.518 55.666 103.071 55.8076 103.467 56.0901C103.863 56.3734 104.062 56.7734 104.062 57.2911C104.062 57.6225 103.983 57.9078 103.824 58.1484C103.665 58.3892 103.435 58.5727 103.134 58.6995C103.537 58.8078 103.843 58.993 104.054 59.2551ZM100.143 58.3652H101.711C102.09 58.3652 102.378 58.2902 102.576 58.1392C102.775 57.9883 102.874 57.7661 102.874 57.4707C102.874 57.1762 102.775 56.9512 102.576 56.7985C102.378 56.6447 102.089 56.5678 101.711 56.5678H100.143V58.3652ZM103.189 60.1449C103.189 59.5311 102.775 59.2236 101.945 59.2236H100.143V61.0839H101.945C102.774 61.0839 103.189 60.7709 103.189 60.1449Z" fill="#A8A8A8"/>
<path id="Vector_7" d="M106.883 61.6572C106.366 61.3776 105.96 60.9887 105.667 60.4923C105.372 59.996 105.225 59.4404 105.225 58.8266C105.225 58.2126 105.372 57.657 105.667 57.1606C105.96 56.6643 106.366 56.2754 106.883 55.9957C107.399 55.7161 107.979 55.5762 108.622 55.5762C109.265 55.5762 109.844 55.7161 110.361 55.9957C110.877 56.2754 111.283 56.6624 111.577 57.1559C111.871 57.6496 112.019 58.206 112.019 58.8266C112.019 59.4469 111.872 60.0035 111.577 60.497C111.283 60.9905 110.877 61.3776 110.361 61.6572C109.844 61.9369 109.265 62.0768 108.622 62.0768C107.979 62.0768 107.399 61.9369 106.883 61.6572ZM109.757 60.7628C110.094 60.573 110.358 60.3081 110.55 59.9682C110.742 59.6283 110.838 59.2478 110.838 58.8255C110.838 58.4042 110.742 58.0236 110.55 57.6829C110.358 57.343 110.094 57.0783 109.757 56.8883C109.421 56.6986 109.042 56.604 108.622 56.604C108.201 56.604 107.822 56.6986 107.486 56.8883C107.15 57.0783 106.886 57.343 106.693 57.6829C106.501 58.0228 106.405 58.4042 106.405 58.8255C106.405 59.2469 106.501 59.6275 106.693 59.9682C106.886 60.3081 107.15 60.573 107.486 60.7628C107.822 60.9525 108.201 61.0471 108.622 61.0471C109.043 61.0479 109.421 60.9525 109.757 60.7628Z" fill="#A8A8A8"/>
<path id="Vector_8" d="M117.339 59.2736C117.553 59.5414 117.659 59.8561 117.659 60.2173C117.659 60.5968 117.536 60.9265 117.289 61.2061C117.043 61.4858 116.714 61.7016 116.302 61.8516C115.891 62.0015 115.442 62.0775 114.955 62.0775C114.535 62.0775 114.113 62.0193 113.69 61.9016C113.335 61.8034 113.002 61.6636 112.692 61.4831C112.588 61.4228 112.549 61.2905 112.597 61.1812L112.781 60.7645C112.838 60.6366 112.991 60.5839 113.113 60.6524C113.329 60.7737 113.561 60.8709 113.811 60.9451C114.147 61.0441 114.48 61.0942 114.81 61.0942C115.284 61.0942 115.68 61.0006 115.995 60.8145C116.31 60.6284 116.468 60.3719 116.468 60.0469C116.468 59.7699 116.353 59.5589 116.125 59.4143C115.897 59.2699 115.582 59.1978 115.179 59.1978H113.988C113.835 59.1978 113.711 59.0736 113.711 58.92V58.5552C113.711 58.4014 113.835 58.2774 113.988 58.2774H115.089C115.365 58.2774 115.593 58.2319 115.774 58.1422C116.12 57.9708 116.294 57.5449 116.157 57.1846C116.096 57.0245 115.978 56.8921 115.806 56.7875C115.539 56.6253 115.198 56.5438 114.784 56.5438C114.501 56.5438 114.21 56.5847 113.909 56.6662C113.703 56.7217 113.506 56.7949 113.317 56.8866C113.177 56.9542 113.01 56.8856 112.953 56.7401L112.784 56.3059C112.731 56.1706 112.795 56.0197 112.926 55.9586C113.181 55.841 113.447 55.7484 113.726 55.6818C114.089 55.5948 114.451 55.5503 114.811 55.5503C115.28 55.5503 115.71 55.6226 116.104 55.767C116.497 55.9114 116.811 56.1179 117.045 56.3855C117.279 56.6531 117.397 56.9681 117.397 57.329C117.397 57.6421 117.313 57.9162 117.144 58.1505C116.984 58.3736 116.767 58.5476 116.494 58.6727C116.478 58.6802 116.479 58.7014 116.496 58.707C116.854 58.8273 117.135 59.0162 117.339 59.2736Z" fill="#A8A8A8"/>
<path id="Vector_9" d="M127.263 61.7015L127.254 57.7975L125.265 61.1255C125.213 61.2117 125.121 61.2644 125.02 61.2644H124.82C124.72 61.2644 124.627 61.2126 124.576 61.1274L122.586 57.8512V61.7005C122.586 61.8589 122.459 61.9867 122.301 61.9867H121.763C121.605 61.9867 121.478 61.8589 121.478 61.7005V55.952C121.478 55.7937 121.605 55.666 121.763 55.666H122.28C122.38 55.666 122.473 55.7187 122.524 55.8049L124.937 59.8467L127.323 55.8068C127.374 55.7196 127.468 55.666 127.568 55.666H128.076C128.233 55.666 128.36 55.7937 128.361 55.9512L128.378 61.6997C128.378 61.858 128.25 61.9867 128.092 61.9867H127.546C127.391 61.9867 127.264 61.8589 127.263 61.7015Z" fill="#A8A8A8"/>
<path id="Vector_10" d="M135.16 55.666C135.342 55.666 135.458 55.8605 135.371 56.0216L132.823 60.7681C132.582 61.2201 132.295 61.558 131.962 61.7839C131.629 62.0098 131.267 62.1228 130.877 62.1228C130.642 62.1228 130.409 62.0849 130.177 62.0108C130.05 61.9691 129.977 61.8339 130.017 61.7061L130.166 61.2265C130.204 61.1051 130.332 61.0357 130.455 61.0653C130.606 61.1024 130.738 61.1209 130.849 61.1209C131.228 61.1209 131.54 60.9256 131.786 60.5338L131.885 60.3802L129.56 56.0216C129.474 55.8605 129.591 55.6669 129.773 55.6669H130.475C130.565 55.6669 130.649 55.7179 130.69 55.7994L132.488 59.3783L134.34 55.7975C134.382 55.7179 134.464 55.6669 134.554 55.6669L135.16 55.666Z" fill="#A8A8A8"/>
<path id="Vector_11" d="M137.486 61.6572C136.973 61.3776 136.571 60.9905 136.279 60.497C135.988 60.0035 135.842 59.4469 135.842 58.8266C135.842 58.207 135.989 57.6496 136.283 57.1559C136.577 56.6624 136.982 56.2754 137.496 55.9957C138.009 55.7161 138.584 55.5762 139.221 55.5762C139.737 55.5762 140.209 55.666 140.635 55.8476C140.946 55.979 141.221 56.1532 141.462 56.3707C141.608 56.5041 141.604 56.7384 141.46 56.8755L141.197 57.1226C141.069 57.244 140.87 57.2458 140.735 57.132C140.323 56.7819 139.836 56.6069 139.274 56.6069C138.842 56.6069 138.455 56.7012 138.112 56.8912C137.769 57.081 137.502 57.344 137.31 57.6811C137.118 58.0181 137.022 58.4005 137.022 58.8274C137.022 59.2553 137.118 59.6367 137.31 59.9747C137.502 60.3128 137.769 60.5748 138.112 60.7646C138.455 60.9544 138.842 61.0489 139.274 61.0489C139.835 61.0489 140.321 60.872 140.733 60.5193C140.869 60.4025 141.069 60.4043 141.198 60.5285L141.462 60.7803C141.605 60.9174 141.608 61.1507 141.462 61.2832C141.22 61.5018 140.943 61.6766 140.63 61.8082C140.2 61.9887 139.727 62.0794 139.211 62.0794C138.575 62.0768 138 61.9369 137.486 61.6572Z" fill="#A8A8A8"/>
<path id="Vector_12" d="M143.852 61.6572C143.335 61.3776 142.93 60.9887 142.636 60.4923C142.341 59.996 142.194 59.4404 142.194 58.8266C142.194 58.2126 142.341 57.657 142.636 57.1606C142.93 56.6643 143.335 56.2754 143.852 55.9957C144.368 55.7161 144.948 55.5762 145.591 55.5762C146.234 55.5762 146.813 55.7161 147.33 55.9957C147.846 56.2754 148.252 56.6624 148.547 57.1559C148.84 57.6496 148.988 58.206 148.988 58.8266C148.988 59.4469 148.841 60.0035 148.547 60.497C148.252 60.9905 147.846 61.3776 147.33 61.6572C146.813 61.9369 146.234 62.0768 145.591 62.0768C144.948 62.0768 144.368 61.9369 143.852 61.6572ZM146.726 60.7628C147.063 60.573 147.327 60.3081 147.519 59.9682C147.711 59.6283 147.808 59.2478 147.808 58.8255C147.808 58.4042 147.711 58.0236 147.519 57.6829C147.327 57.343 147.063 57.0783 146.726 56.8883C146.39 56.6986 146.011 56.604 145.591 56.604C145.17 56.604 144.791 56.6986 144.455 56.8883C144.119 57.0783 143.855 57.343 143.662 57.6829C143.47 58.0228 143.374 58.4042 143.374 58.8255C143.374 59.2469 143.47 59.6275 143.662 59.9682C143.855 60.3081 144.119 60.573 144.455 60.7628C144.791 60.9525 145.17 61.0471 145.591 61.0471C146.011 61.0479 146.39 60.9525 146.726 60.7628Z" fill="#A8A8A8"/>
<path id="Vector_13" d="M154.309 55.9364C154.714 56.117 155.025 56.3764 155.241 56.7134C155.457 57.0505 155.565 57.4504 155.565 57.9145C155.565 58.3718 155.457 58.7709 155.241 59.1108C155.025 59.4505 154.713 59.7118 154.309 59.8923C153.903 60.0729 153.427 60.1636 152.88 60.1636H151.456V61.6684C151.456 61.8443 151.314 61.9869 151.139 61.9869H150.604C150.428 61.9869 150.286 61.8443 150.286 61.6684V55.9856C150.286 55.8096 150.428 55.667 150.604 55.667H152.88C153.426 55.6662 153.903 55.7559 154.309 55.9364ZM153.988 58.8441C154.252 58.6274 154.385 58.3173 154.385 57.9145C154.385 57.5117 154.252 57.2014 153.988 56.9847C153.724 56.768 153.336 56.6597 152.826 56.6597H151.456V59.1701H152.826C153.337 59.1691 153.724 59.0608 153.988 58.8441Z" fill="#A8A8A8"/>
<path id="Vector_14" d="M160.54 60.5236H157.386L156.842 61.8035C156.793 61.9146 156.685 61.9867 156.566 61.9867H156.021C155.803 61.9867 155.658 61.7618 155.746 61.5617L158.313 55.8428C158.363 55.7345 158.471 55.665 158.588 55.665H159.353C159.472 55.665 159.579 55.7345 159.627 55.8419L162.203 61.5608C162.292 61.7598 162.148 61.9859 161.929 61.9859H161.366C161.246 61.9859 161.139 61.9146 161.09 61.8043L160.54 60.5236ZM160.151 59.6024L158.963 56.8391L157.783 59.6024H160.151Z" fill="#A8A8A8"/>
<path id="Vector_15" d="M172.99 46.4552L166.674 32.4339C166.485 32.0135 166.065 31.7412 165.605 31.7412H163.686C163.226 31.7412 162.806 32.0135 162.617 32.4339L156.322 46.4552C156.157 46.8218 156.188 47.2404 156.406 47.5784C156.622 47.9145 156.991 48.1144 157.391 48.1144H158.808C159.282 48.1144 159.704 47.834 159.89 47.3997L161.102 44.5513H168.151L169.381 47.4061C169.567 47.8366 169.99 48.1154 170.459 48.1154H171.922C172.324 48.1154 172.69 47.9155 172.908 47.5774C173.124 47.2404 173.156 46.82 172.99 46.4552ZM162.478 41.3382L164.625 36.3138L166.786 41.3382H162.478Z" fill="white"/>
<path id="Vector_16" d="M68.5576 45.3015C68.5576 45.6247 68.4198 45.9404 68.1833 46.1627C67.531 46.7794 66.764 47.2757 65.9029 47.6387C64.8005 48.1007 63.5744 48.335 62.2568 48.335C60.6296 48.335 59.1392 47.972 57.8206 47.2526C57.1581 46.8915 56.564 46.4591 56.0419 45.9562C55.5198 45.4533 55.069 44.882 54.6929 44.2459C53.9427 42.9746 53.5602 41.5206 53.5602 39.928C53.5602 38.3354 53.9464 36.8815 54.7058 35.6083C55.4644 34.3341 56.5197 33.3248 57.8447 32.6034C59.1614 31.8858 60.6537 31.521 62.2808 31.521C63.5993 31.521 64.8209 31.7561 65.9167 32.2202C66.7705 32.5813 67.5328 33.0775 68.1833 33.6915C68.4217 33.9166 68.5576 34.2313 68.5576 34.5573C68.5576 34.8832 68.4264 35.1861 68.187 35.4101L67.3315 36.2186C66.8869 36.6371 66.2088 36.6492 65.7541 36.2472C64.8097 35.4065 63.7176 34.9981 62.412 34.9981C61.4455 34.9981 60.5714 35.212 59.8127 35.6305C59.0598 36.0472 58.4656 36.6343 58.0443 37.3741C57.6211 38.1158 57.4048 38.9751 57.4048 39.928C57.4048 40.8809 57.6211 41.7392 58.0443 42.4837C58.4656 43.2217 59.0607 43.8088 59.8127 44.2255C60.5714 44.6459 61.4455 44.858 62.412 44.858C63.714 44.858 64.806 44.4459 65.7494 43.5986C66.1977 43.195 66.8952 43.207 67.3351 43.6274L68.1944 44.4477C68.4301 44.6728 68.5594 44.9755 68.5576 45.3015Z" fill="#27AE60"/>
<path id="Vector_17" d="M84.3426 32.9182V46.9395C84.3426 47.5866 83.8158 48.1144 83.1682 48.1144H81.7387C81.0929 48.1144 80.5661 47.5866 80.5661 46.9395V35.1303H73.5594V46.9403C73.5594 47.5876 73.0328 48.1154 72.385 48.1154H70.9557C70.3097 48.1154 69.7812 47.5876 69.7812 46.9403V32.9182C69.7812 32.269 70.3097 31.7412 70.9557 31.7412H83.1682C83.8158 31.7422 84.3426 32.269 84.3426 32.9182Z" fill="#27AE60"/>
<path id="Vector_18" d="M98.8605 45.9255V46.9395C98.8605 47.5866 98.3337 48.1144 97.6861 48.1144H87.5387C86.891 48.1144 86.3643 47.5866 86.3643 46.9395V32.9182C86.3643 32.269 86.891 31.7412 87.5387 31.7412H97.3793C98.0271 31.7412 98.5537 32.269 98.5537 32.9182V33.9321C98.5537 34.5813 98.0271 35.1091 97.3793 35.1091H90.185V38.1454H96.435C97.0808 38.1454 97.6094 38.6732 97.6094 39.3222V40.2926C97.6094 40.9418 97.0808 41.4696 96.435 41.4696H90.185V44.7486H97.6851C98.3337 44.7486 98.8605 45.2764 98.8605 45.9255Z" fill="#27AE60"/>
<path id="Vector_19" d="M116.682 45.9033V50.3286C116.682 50.9777 116.155 51.5056 115.508 51.5056H114.253C113.607 51.5056 113.078 50.9777 113.078 50.3286V48.1144H101.208C100.562 48.1144 100.033 47.5866 100.033 46.9395V32.9182C100.033 32.269 100.562 31.7412 101.208 31.7412H102.637C103.285 31.7412 103.812 32.269 103.812 32.9182V44.7263H110.598V32.9182C110.598 32.269 111.125 31.7412 111.773 31.7412H113.222C113.87 31.7412 114.397 32.269 114.397 32.9182V44.7263H115.508C116.155 44.7263 116.682 45.2541 116.682 45.9033Z" fill="#27AE60"/>
<path id="Vector_20" d="M143.5 32.9181V33.9525C143.5 34.6015 142.973 35.1293 142.325 35.1293H138.406V46.9395C138.406 47.5866 137.879 48.1144 137.231 48.1144H135.78C135.134 48.1144 134.607 47.5866 134.607 46.9395V35.1303H130.708C130.06 35.1303 129.534 34.6025 129.534 33.9533V32.919C129.534 32.27 130.06 31.7422 130.708 31.7422H142.325C142.973 31.7422 143.5 32.269 143.5 32.9181Z" fill="white"/>
<path id="Vector_21" d="M127.768 38.0249H120.216C119.571 38.0249 119.043 38.5537 119.043 39.2V40.6548C119.043 41.3039 119.57 41.8317 120.216 41.8317H127.768C128.277 41.8317 128.69 41.4187 128.69 40.9085V38.9482C128.69 38.4379 128.277 38.0249 127.768 38.0249Z" fill="white"/>
<path id="Vector_22" d="M157.712 34.5155C157.424 34.0663 157.073 33.6664 156.658 33.32C156.242 32.9737 155.765 32.681 155.23 32.4422C154.183 31.9765 152.946 31.7412 151.552 31.7412H145.92C145.272 31.7412 144.745 32.269 144.745 32.9182V46.9395C144.745 47.5866 145.272 48.1144 145.92 48.1144H147.392C148.04 48.1144 148.567 47.5866 148.567 46.9395V43.6689H151.553C152.947 43.6689 154.184 43.4336 155.231 42.9678C156.302 42.4901 157.14 41.7891 157.715 40.8817C158.29 39.977 158.581 38.9094 158.581 37.7055C158.581 36.486 158.29 35.4146 157.712 34.5155ZM154.737 37.7065C154.737 38.5435 154.48 39.1612 153.95 39.5981C153.397 40.0491 152.546 40.2806 151.422 40.2806H148.568V35.1303H151.422C152.545 35.1303 153.397 35.3609 153.95 35.8146C154.479 36.2489 154.737 36.8675 154.737 37.7065Z" fill="white"/>
<path id="Vector_23" d="M188.695 32.9182V46.9395C188.695 47.5866 188.167 48.1144 187.52 48.1144H186.047C185.399 48.1144 184.873 47.5866 184.873 46.9395V41.5123H177.888V46.9395C177.888 47.5866 177.362 48.1144 176.715 48.1144H175.241C174.594 48.1144 174.066 47.5866 174.066 46.9395V32.9182C174.066 32.269 174.594 31.7412 175.241 31.7412H176.715C177.362 31.7412 177.888 32.269 177.888 32.9182V38.1019H184.873V32.9182C184.873 32.269 185.399 31.7412 186.047 31.7412H187.52C188.167 31.7422 188.695 32.269 188.695 32.9182Z" fill="white"/>
<path id="Vector_24" d="M204.647 45.3015C204.647 45.6247 204.51 45.9404 204.274 46.1627C203.621 46.7794 202.852 47.2757 201.992 47.6387C200.891 48.1007 199.664 48.335 198.346 48.335C196.719 48.335 195.229 47.972 193.91 47.2526C192.586 46.5312 191.533 45.5191 190.782 44.2459C190.032 42.9746 189.65 41.5206 189.65 39.928C189.65 38.3354 190.035 36.8815 190.795 35.6083C191.554 34.3369 192.61 33.3248 193.934 32.6034C195.25 31.8858 196.743 31.521 198.37 31.521C199.689 31.521 200.911 31.7561 202.007 32.2202C202.861 32.5813 203.622 33.0775 204.274 33.6915C204.511 33.9166 204.647 34.2313 204.647 34.5573C204.647 34.8832 204.516 35.1861 204.277 35.4101L203.422 36.2186C202.975 36.6371 202.298 36.6492 201.843 36.2472C200.899 35.4065 199.806 34.9981 198.502 34.9981C197.534 34.9981 196.661 35.212 195.902 35.6305C195.149 36.0472 194.555 36.6343 194.135 37.3741C193.711 38.1158 193.495 38.9751 193.495 39.928C193.495 40.8809 193.711 41.7392 194.135 42.4837C194.555 43.2217 195.151 43.8088 195.902 44.2255C196.661 44.6459 197.534 44.858 198.502 44.858C199.804 44.858 200.896 44.4459 201.84 43.5986C202.287 43.195 202.985 43.207 203.427 43.6274L204.284 44.4477C204.52 44.6728 204.649 44.9755 204.647 45.3015Z" fill="white"/>
<path id="Vector_25" d="M39.6305 28.8441L36.5981 30.0897C35.856 30.3943 35.709 31.3676 36.3133 31.8944C42.2778 37.0892 44.4844 45.1749 41.777 52.6512C38.8055 60.8517 30.8498 65.7947 22.0062 64.967C13.4934 64.1604 6.34259 57.1599 5.37234 48.6798C4.35038 39.5384 9.42778 31.224 17.7548 28.4636C17.8065 28.4432 17.8889 28.4321 17.9711 28.4321C18.2603 28.4321 18.6825 28.5359 19.0032 28.608L19.2508 28.6701C19.7461 28.7841 20.2515 28.9497 20.7883 29.1248C21.8824 29.497 22.9967 29.8693 24.2146 29.8489C25.8445 29.8174 27.5891 29.559 29.4361 29.0942L29.5295 29.0627C30.0043 28.9487 30.4884 28.8145 30.9735 28.6591L31.5105 28.4932C32.0879 28.3173 32.6562 28.1413 33.2236 27.9654L34.1004 27.707L43.6037 24.8939L42.7167 24.1077C39.4559 21.2121 36.1535 19.0195 32.6147 17.4175C29.6014 16.0322 27.0014 15.422 24.3911 15.5044C20.3772 15.6591 17.2096 17.5619 14.7019 21.3159L14.5883 21.4817C18.3546 20.4575 26.8877 19.0927 36.8152 23.7355C36.8152 23.7355 21.7391 20.8918 13.5978 24.5836C13.2162 24.7597 12.8447 24.956 12.4835 25.1625C12.2875 25.2661 12.1019 25.3801 11.916 25.5032C3.74424 30.4155 -0.930281 39.7531 0.328217 49.277C1.73178 59.9693 9.89346 68.2523 20.646 69.9071C21.802 70.0829 22.9468 70.1757 24.0926 70.1757C28.6331 70.1757 33.0489 68.831 36.8364 66.4115C40.6128 63.9918 43.7599 60.5063 45.7622 56.2358C50.0376 47.0796 47.977 36.1077 40.7929 29.0598C40.4852 28.7645 40.0251 28.683 39.6305 28.8441Z" fill="#27AE60"/>
<path id="Vector_26" d="M31.2531 55.9885L31.1607 57.6128C31.1607 57.6128 31.1497 57.6128 31.1376 57.6015C30.6552 57.2561 23.0332 51.7725 18.7791 48.1779C18.7329 48.1436 18.6875 48.0972 18.6413 48.0629C17.5493 47.1296 16.4571 46.1619 15.5026 45.0564C13.2036 42.4294 12.6631 38.9273 14.0195 35.9437C23.5267 38.6744 27.0904 47.9019 27.3206 48.5241C25.3894 39.6533 18.1008 34.0426 15.3991 32.2333L16.5255 32.1638C19.1007 32.0139 22.8253 32.1407 25.4577 34.9751C27.2171 36.8873 28.6308 39.0652 29.539 41.2886C31.5174 46.0924 31.5293 51.1965 31.2531 55.9885Z" fill="#27AE60"/>
</g>
</svg>
