<svg width="24" height="24" viewBox="0 0 24 24" fill="none" xmlns="http://www.w3.org/2000/svg">
<g clip-path="url(#clip0_998_1060)">
<path d="M12 0.480469C5.63758 0.480469 0.47998 5.63807 0.47998 12.0005C0.47998 18.3629 5.63758 23.5205 12 23.5205C18.3624 23.5205 23.52 18.3629 23.52 12.0005C23.52 5.63807 18.3624 0.480469 12 0.480469ZM16.4304 13.4777C16.4304 13.4777 17.4492 14.4833 17.7 14.9501C17.7072 14.9597 17.7108 14.9693 17.7132 14.9741C17.8152 15.1457 17.8392 15.2789 17.7888 15.3785C17.7048 15.5441 17.4168 15.6257 17.3184 15.6329H15.5184C15.3936 15.6329 15.132 15.6005 14.8152 15.3821C14.5716 15.2117 14.3316 14.9321 14.0976 14.6597C13.7484 14.2541 13.446 13.9037 13.1412 13.9037C13.1025 13.9036 13.064 13.9097 13.0272 13.9217C12.7968 13.9961 12.5016 14.3249 12.5016 15.2009C12.5016 15.4745 12.2856 15.6317 12.1332 15.6317H11.3088C11.028 15.6317 9.56518 15.5333 8.26918 14.1665C6.68278 12.4925 5.25478 9.13487 5.24278 9.10367C5.15278 8.88647 5.33878 8.77007 5.54158 8.77007H7.35958C7.60198 8.77007 7.68118 8.91767 7.73638 9.04847C7.80118 9.20087 8.03878 9.80687 8.42878 10.4885C9.06118 11.5997 9.44878 12.0509 9.75958 12.0509C9.81786 12.0502 9.8751 12.0354 9.92638 12.0077C10.332 11.7821 10.2564 10.3361 10.2384 10.0361C10.2384 9.97967 10.2372 9.38927 10.0296 9.10607C9.88078 8.90087 9.62758 8.82287 9.47398 8.79407C9.53615 8.70828 9.61806 8.63872 9.71278 8.59127C9.99118 8.45207 10.4928 8.43167 10.9908 8.43167H11.268C11.808 8.43887 11.9472 8.47367 12.1428 8.52287C12.5388 8.61767 12.5472 8.87327 12.5124 9.74807C12.5016 9.99647 12.4908 10.2773 12.4908 10.6085C12.4908 10.6805 12.4872 10.7573 12.4872 10.8389C12.4752 11.2841 12.4608 11.7893 12.7752 11.9969C12.8162 12.0226 12.8636 12.0363 12.912 12.0365C13.0212 12.0365 13.35 12.0365 14.2404 10.5089C14.515 10.0172 14.7536 9.50624 14.9544 8.98007C14.9724 8.94887 15.0252 8.85287 15.0876 8.81567C15.1336 8.79219 15.1847 8.78025 15.2364 8.78087H17.3736C17.6064 8.78087 17.766 8.81567 17.796 8.90567C17.8488 9.04847 17.7864 9.48407 16.8108 10.8053L16.3752 11.3801C15.4908 12.5393 15.4908 12.5981 16.4304 13.4777Z" fill="white"/>
</g>
<defs>
<clipPath id="clip0_998_1060">
<rect width="24" height="24" fill="white"/>
</clipPath>
</defs>
</svg>
